<!-- public/img/icons.svg -->
<svg xmlns="http://www.w3.org/2000/svg" style="display:none">
  <symbol id="i-plus" viewBox="0 0 24 24"><path d="M11 5h2v14h-2zM5 11h14v2H5z"/></symbol>
  <symbol id="i-save" viewBox="0 0 24 24"><path d="M17 3H5a2 2 0 0 0-2 2v14l4-4h10a2 2 0 0 0 2-2V5a2 2 0 0 0-2-2z"/></symbol>
  <symbol id="i-search" viewBox="0 0 24 24"><path d="M10 4a6 6 0 1 1 0 12 6 6 0 0 1 0-12zm8.7 12.3-3-3"/></symbol>
  <symbol id="i-edit" viewBox="0 0 24 24"><path d="M3 17.25V21h3.75L17.81 9.94l-3.75-3.75L3 17.25z"/></symbol>
  <symbol id="i-trash" viewBox="0 0 24 24"><path d="M6 19a2 2 0 0 0 2 2h8a2 2 0 0 0 2-2V7H6v12zM19 4h-3.5l-1-1h-5l-1 1H5v2h14V4z"/></symbol>
  <symbol id="i-eye" viewBox="0 0 24 24"><path d="M12 5C7 5 2.73 8.11 1 12c1.73 3.89 6 7 11 7s9.27-3.11 11-7c-1.73-3.89-6-7-11-7zm0 12a5 5 0 1 1 0-10 5 5 0 0 1 0 10z"/></symbol>
</svg>
